<svg xmlns="http://www.w3.org/2000/svg" width="131" height="46" viewBox="0 0 131 46" fill="none">
  <g clip-path="url(#clip0_179_1721)">
    <mask id="mask0_179_1721" style="mask-type:luminance" maskUnits="userSpaceOnUse" x="0" y="0" width="131" height="45">
      <path d="M130.496 0.380371H0.496094V44.0779H130.496V0.380371Z" fill="white"/>
    </mask>
    <g mask="url(#mask0_179_1721)">
      <path d="M119.809 0.380373H10.8253C10.4281 0.380373 10.0356 0.380373 9.63937 0.382558C9.30771 0.384743 8.97869 0.39109 8.64384 0.396432C7.9164 0.405064 7.19066 0.469599 6.47295 0.589476C5.75624 0.711963 5.06199 0.942886 4.41366 1.27443C3.76613 1.60878 3.17446 2.04325 2.66012 2.56205C2.14308 3.07939 1.71209 3.67737 1.38372 4.33299C1.05444 4.9873 0.826121 5.68845 0.70664 6.41224C0.586022 7.13511 0.521117 7.86631 0.512506 8.59931C0.502453 8.93425 0.501391 9.2703 0.496094 9.60528V34.8561C0.501391 35.1953 0.502453 35.5239 0.512506 35.8632C0.52112 36.5962 0.586025 37.3273 0.70664 38.0502C0.825791 38.7744 1.05413 39.476 1.38372 40.1305C1.71194 40.784 2.143 41.3796 2.66012 41.894C3.17251 42.4151 3.76456 42.8499 4.41366 43.1817C5.06198 43.5141 5.75616 43.7464 6.47295 43.8708C7.19079 43.9897 7.91644 44.0543 8.64384 44.0639C8.97869 44.0714 9.30771 44.0756 9.63937 44.0756C10.0356 44.0778 10.4281 44.0778 10.8253 44.0778H119.809C120.198 44.0778 120.594 44.0778 120.983 44.0756C121.313 44.0756 121.652 44.0714 121.982 44.0639C122.708 44.0548 123.432 43.9902 124.148 43.8708C124.867 43.7455 125.564 43.5133 126.216 43.1817C126.864 42.8497 127.456 42.415 127.968 41.894C128.483 41.3776 128.915 40.7824 129.248 40.1305C129.575 39.4755 129.801 38.774 129.918 38.0502C130.039 37.3272 130.106 36.5962 130.119 35.8632C130.124 35.5239 130.124 35.1953 130.124 34.8561C130.132 34.4592 130.132 34.0645 130.132 33.6612V10.798C130.132 10.3979 130.132 10.0011 130.124 9.60528C130.124 9.2703 130.124 8.93424 130.119 8.59925C130.106 7.86621 130.039 7.13516 129.918 6.41219C129.801 5.68883 129.574 4.98773 129.248 4.33295C128.579 3.01883 127.519 1.94914 126.216 1.27433C125.564 0.943598 124.867 0.712737 124.148 0.589378C123.432 0.468973 122.708 0.404415 121.982 0.396279C121.652 0.390948 121.313 0.384546 120.983 0.382416C120.594 0.380231 120.198 0.380373 119.809 0.380373Z" fill="white"/>
      <path d="M9.64422 43.1222C9.31415 43.1222 8.99205 43.1179 8.66457 43.1105C7.98617 43.1016 7.30935 43.042 6.63967 42.9323C6.01522 42.8239 5.4103 42.6221 4.84486 42.3338C4.28461 42.0478 3.77361 41.6728 3.33145 41.2232C2.88288 40.7789 2.50943 40.2635 2.2259 39.6976C1.93923 39.128 1.74085 38.5174 1.63765 37.8872C1.5262 37.21 1.46589 36.5253 1.45727 35.8389C1.4504 35.6085 1.44141 34.8414 1.44141 34.8414V9.60546C1.44141 9.60546 1.45098 8.85014 1.45732 8.62823C1.46558 7.94292 1.52553 7.25925 1.63665 6.58311C1.74004 5.95116 1.93858 5.33885 2.2254 4.76737C2.50789 4.20183 2.87927 3.68611 3.32513 3.2402C3.77049 2.79005 4.28313 2.41314 4.84433 2.12321C5.40847 1.83578 6.01225 1.63547 6.63543 1.52899C7.30731 1.41818 7.98648 1.35828 8.66723 1.34977L9.64475 1.33643H120.978L121.967 1.3503C122.641 1.35839 123.314 1.41776 123.98 1.52792C124.61 1.63573 125.22 1.83744 125.79 2.12642C126.915 2.7107 127.829 3.6351 128.407 4.77004C128.689 5.33757 128.884 5.94488 128.986 6.57138C129.099 7.25306 129.162 7.94211 129.175 8.63304C129.178 8.94241 129.178 9.27473 129.178 9.60546C129.186 10.0151 129.186 10.4051 129.186 10.7982V33.6614C129.186 34.0583 129.186 34.4456 129.178 34.836C129.178 35.1913 129.178 35.5167 129.174 35.8517C129.161 36.5303 129.099 37.207 128.988 37.8765C128.887 38.5113 128.69 39.1266 128.403 39.7009C128.118 40.2607 127.747 40.7715 127.303 41.2147C126.861 41.6667 126.349 42.0439 125.787 42.3317C125.218 42.6223 124.609 42.8247 123.98 42.9323C123.311 43.0426 122.634 43.1022 121.955 43.1105C121.638 43.1179 121.306 43.1222 120.983 43.1222L119.809 43.1243L9.64422 43.1222Z" fill="white"/>
      <path d="M27.3292 22.5576C27.3409 21.6458 27.5811 20.7518 28.0274 19.9587C28.4738 19.1657 29.1118 18.4993 29.8822 18.0218C29.3928 17.317 28.7472 16.7369 27.9966 16.3278C27.2461 15.9186 26.4112 15.6915 25.5584 15.6646C23.7392 15.4721 21.9756 16.7623 21.0486 16.7623C20.1037 16.7623 18.6764 15.6838 17.1394 15.7156C16.1453 15.748 15.1764 16.0396 14.3272 16.5618C13.478 17.084 12.7774 17.8192 12.2937 18.6957C10.1986 22.3536 11.7614 27.7295 13.7684 30.6863C14.7725 32.1342 15.9461 33.7515 17.4816 33.6941C18.9843 33.6313 19.5455 32.7279 21.3593 32.7279C23.1563 32.7279 23.6829 33.6941 25.2496 33.6577C26.862 33.6313 27.8779 32.2034 28.8468 30.7418C29.5683 29.7102 30.1234 28.57 30.4918 27.3634C29.555 26.9639 28.7556 26.2951 28.1932 25.4405C27.6308 24.5859 27.3303 23.5833 27.3292 22.5576Z" fill="#2A2A28"/>
      <path d="M24.3706 13.72C25.2497 12.6558 25.6829 11.2879 25.578 9.90674C24.2348 10.049 22.9941 10.6964 22.1031 11.7198C21.6674 12.2198 21.3338 12.8014 21.1212 13.4315C20.9086 14.0616 20.8212 14.7277 20.8641 15.3919C21.5359 15.3989 22.2005 15.252 22.8079 14.9624C23.4153 14.6728 23.9496 14.248 24.3706 13.72Z" fill="#2A2A28"/>
      <path d="M46.3243 30.0286H41.1964L39.965 33.6953H37.793L42.65 20.1294H44.9066L49.7636 33.6953H47.5546L46.3243 30.0286ZM41.7275 28.3366H45.7922L43.7884 22.3858H43.7323L41.7275 28.3366Z" fill="#2A2A28"/>
      <path d="M60.2527 28.7508C60.2527 31.8243 58.6214 33.799 56.1595 33.799C55.5359 33.8319 54.9157 33.6871 54.3699 33.381C53.8242 33.075 53.3749 32.6202 53.0735 32.0686H53.0269V36.9675H51.0137V23.8049H52.9624V25.45H52.9995C53.3147 24.9011 53.7715 24.4486 54.3215 24.1407C54.8714 23.8328 55.4938 23.681 56.1225 23.7015C58.6118 23.7015 60.2527 25.6858 60.2527 28.7508ZM58.1834 28.7508C58.1834 26.7483 57.1572 25.4319 55.5914 25.4319C54.0532 25.4319 53.0185 26.7761 53.0185 28.7508C53.0185 30.7436 54.0532 32.0782 55.5914 32.0782C57.1572 32.0782 58.1834 30.7714 58.1834 28.7508Z" fill="#2A2A28"/>
      <path d="M71.0477 28.7508C71.0477 31.8243 69.4163 33.799 66.9545 33.799C66.3309 33.8319 65.7107 33.6871 65.1649 33.381C64.6191 33.075 64.1698 32.6202 63.8685 32.0686H63.8219V36.9675H61.8086V23.8049H63.7574V25.45H63.7944C64.1096 24.9011 64.5665 24.4486 65.1164 24.1407C65.6663 23.8328 66.2888 23.681 66.9174 23.7015C69.4068 23.7015 71.0477 25.6858 71.0477 28.7508ZM68.9783 28.7508C68.9783 26.7483 67.9521 25.4319 66.3864 25.4319C64.8481 25.4319 63.8135 26.7761 63.8135 28.7508C63.8135 30.7436 64.8481 32.0782 66.3864 32.0782C67.9521 32.0782 68.9783 30.7714 68.9783 28.7508Z" fill="#2A2A28"/>
      <path d="M78.182 29.9156C78.3312 31.2609 79.6272 32.1442 81.3982 32.1442C83.0951 32.1442 84.316 31.2609 84.316 30.0479C84.316 28.9949 83.5797 28.3644 81.8362 27.9323L80.0927 27.5088C77.6224 26.9071 76.4756 25.7421 76.4756 23.8517C76.4756 21.5111 78.4984 19.9033 81.3707 19.9033C84.2133 19.9033 86.1621 21.5111 86.2277 23.8517H84.1954C84.0737 22.4979 82.9639 21.6807 81.3421 21.6807C79.7203 21.6807 78.6105 22.5075 78.6105 23.7109C78.6105 24.67 79.3193 25.2343 81.0533 25.6663L82.5354 26.0333C85.2956 26.6916 86.4424 27.8096 86.4424 29.7939C86.4424 32.3319 84.4376 33.9215 81.249 33.9215C78.2656 33.9215 76.2513 32.3693 76.1211 29.9155L78.182 29.9156Z" fill="#2A2A28"/>
      <path d="M90.7887 21.4644V23.805H92.6539V25.4127H90.7887V30.8653C90.7887 31.7124 91.1622 32.1071 91.9821 32.1071C92.2035 32.1032 92.4246 32.0875 92.6444 32.0601V33.6582C92.2757 33.7277 91.901 33.7592 91.5261 33.7521C89.5404 33.7521 88.7659 33 88.7659 31.0818V25.4127H87.3398V23.805H88.7659V21.4644H90.7887Z" fill="#2A2A28"/>
      <path d="M93.7324 28.7506C93.7324 25.6386 95.5499 23.6831 98.3842 23.6831C101.228 23.6831 103.037 25.6386 103.037 28.7506C103.037 31.8711 101.237 33.818 98.3842 33.818C95.5319 33.818 93.7324 31.8711 93.7324 28.7506ZM100.985 28.7506C100.985 26.6159 100.016 25.3559 98.3842 25.3559C96.7528 25.3559 95.7837 26.6255 95.7837 28.7506C95.7837 30.8938 96.7528 32.1442 98.3842 32.1442C100.016 32.1442 100.985 30.8938 100.985 28.7506Z" fill="#2A2A28"/>
      <path d="M104.697 23.8049H106.617V25.4883H106.663C106.793 24.9625 107.099 24.4979 107.528 24.1725C107.958 23.847 108.486 23.6807 109.023 23.7014C109.255 23.7005 109.486 23.7259 109.712 23.7771V25.6761C109.419 25.5858 109.114 25.5444 108.808 25.5534C108.515 25.5414 108.224 25.5934 107.953 25.7058C107.682 25.8182 107.439 25.9883 107.24 26.2045C107.04 26.4207 106.89 26.6778 106.798 26.9582C106.707 27.2386 106.677 27.5356 106.71 27.8289V33.6954H104.697V23.8049Z" fill="#2A2A28"/>
      <path d="M118.996 30.7904C118.725 32.5858 116.991 33.818 114.772 33.818C111.919 33.818 110.148 31.8903 110.148 28.7975C110.148 25.6952 111.929 23.6831 114.688 23.6831C117.401 23.6831 119.108 25.5629 119.108 28.5618V29.2573H112.18V29.38C112.148 29.744 112.194 30.1107 112.313 30.4557C112.432 30.8008 112.623 31.1163 112.873 31.3812C113.122 31.6462 113.425 31.8546 113.76 31.9926C114.096 32.1305 114.457 32.195 114.819 32.1815C115.295 32.2265 115.772 32.1154 116.18 31.8647C116.588 31.6141 116.905 31.2373 117.084 30.7904H118.996ZM112.19 27.8384H117.093C117.112 27.5112 117.062 27.1836 116.949 26.8764C116.836 26.5692 116.66 26.289 116.435 26.0533C116.209 25.8175 115.937 25.6315 115.636 25.5067C115.336 25.3819 115.013 25.3211 114.688 25.3282C114.36 25.3262 114.035 25.3897 113.732 25.5151C113.428 25.6404 113.152 25.8251 112.92 26.0585C112.688 26.2919 112.504 26.5693 112.379 26.8748C112.253 27.1803 112.189 27.5078 112.19 27.8384Z" fill="#2A2A28"/>
      <path d="M41.4736 9.91853C41.8957 9.88799 42.3192 9.95229 42.7136 10.1068C43.1081 10.2613 43.4636 10.5022 43.7546 10.812C44.0456 11.1219 44.2647 11.493 44.3962 11.8986C44.5278 12.3042 44.5684 12.7341 44.5152 13.1575C44.5152 15.2399 43.399 16.437 41.4736 16.437H39.1387V9.91853H41.4736ZM40.1427 15.5151H41.3614C41.663 15.5333 41.9649 15.4834 42.2449 15.3691C42.525 15.2549 42.7763 15.079 42.9805 14.8545C43.1847 14.6299 43.3367 14.3622 43.4254 14.071C43.5141 13.7797 43.5372 13.4722 43.4932 13.1707C43.534 12.8705 43.5085 12.5649 43.4185 12.2757C43.3284 11.9866 43.1761 11.7211 42.9723 11.4984C42.7686 11.2756 42.5185 11.101 42.24 10.9871C41.9615 10.8733 41.6615 10.8229 41.3614 10.8397H40.1427V15.5151Z" fill="#2A2A28"/>
      <path d="M45.6496 13.9747C45.6189 13.6515 45.6556 13.3253 45.7572 13.0172C45.8589 12.709 46.0233 12.4257 46.2399 12.1854C46.4565 11.9451 46.7205 11.753 47.015 11.6217C47.3095 11.4903 47.628 11.4224 47.9501 11.4224C48.2721 11.4224 48.5906 11.4903 48.8851 11.6217C49.1796 11.753 49.4436 11.9451 49.6602 12.1854C49.8768 12.4257 50.0412 12.709 50.1429 13.0172C50.2446 13.3253 50.2812 13.6515 50.2506 13.9747C50.2818 14.2983 50.2456 14.625 50.1442 14.9336C50.0428 15.2422 49.8785 15.5261 49.6618 15.7669C49.4452 16.0077 49.181 16.2001 48.8862 16.3317C48.5914 16.4634 48.2725 16.5314 47.9501 16.5314C47.6276 16.5314 47.3088 16.4634 47.014 16.3317C46.7192 16.2001 46.455 16.0077 46.2383 15.7669C46.0216 15.5261 45.8573 15.2422 45.7559 14.9336C45.6546 14.625 45.6183 14.2983 45.6496 13.9747ZM49.2603 13.9747C49.2603 12.9084 48.7853 12.2849 47.9517 12.2849C47.1148 12.2849 46.6441 12.9084 46.6441 13.9747C46.6441 15.0496 47.1149 15.6683 47.9517 15.6683C48.7853 15.6683 49.2603 15.0453 49.2603 13.9747Z" fill="#2A2A28"/>
      <path d="M56.3662 16.4368H55.3675L54.3593 12.8138H54.2832L53.2792 16.4368H52.29L50.9453 11.5176H51.9218L52.7957 15.2712H52.8676L53.8706 11.5176H54.7941L55.7971 15.2712H55.8732L56.7429 11.5176H57.7056L56.3662 16.4368Z" fill="#2A2A28"/>
      <path d="M58.8379 11.5173H59.7647V12.2988H59.8366C59.9587 12.0181 60.1645 11.7828 60.4254 11.6257C60.6864 11.4686 60.9894 11.3975 61.2923 11.4223C61.5297 11.4044 61.768 11.4404 61.9897 11.5279C62.2113 11.6154 62.4106 11.7521 62.5728 11.9278C62.7349 12.1035 62.8558 12.3138 62.9264 12.543C62.9971 12.7722 63.0157 13.0145 62.9808 13.252V16.4364H62.0181V13.4958C62.0181 12.7052 61.6774 12.3121 60.9654 12.3121C60.8043 12.3045 60.6434 12.3322 60.4938 12.3932C60.3443 12.4542 60.2096 12.547 60.0989 12.6655C59.9883 12.7839 59.9044 12.925 59.8529 13.0792C59.8014 13.2333 59.7836 13.3969 59.8006 13.5587V16.4365H58.8379V11.5173Z" fill="#2A2A28"/>
      <path d="M64.5137 9.59717H65.4765V16.4367H64.5137V9.59717Z" fill="#2A2A28"/>
      <path d="M66.8155 13.9748C66.7848 13.6515 66.8216 13.3253 66.9233 13.0172C67.025 12.709 67.1893 12.4257 67.4059 12.1854C67.6226 11.9451 67.8866 11.7531 68.1811 11.6217C68.4757 11.4903 68.7943 11.4224 69.1163 11.4224C69.4384 11.4224 69.7568 11.4903 70.0513 11.6217C70.3458 11.7531 70.6099 11.9451 70.8265 12.1854C71.0431 12.4257 71.2077 12.709 71.3094 13.0172C71.411 13.3253 71.4476 13.6515 71.417 13.9748C71.4482 14.2984 71.4119 14.6251 71.3105 14.9337C71.2091 15.2423 71.0447 15.5262 70.8281 15.767C70.6114 16.0077 70.3472 16.2001 70.0523 16.3318C69.7575 16.4635 69.4388 16.5315 69.1163 16.5315C68.7939 16.5315 68.4749 16.4635 68.1801 16.3318C67.8853 16.2001 67.6212 16.0077 67.4045 15.767C67.1878 15.5262 67.0234 15.2423 66.922 14.9337C66.8205 14.6251 66.7843 14.2984 66.8155 13.9748ZM70.4262 13.9748C70.4262 12.9085 69.9512 12.285 69.1175 12.285C68.2807 12.285 67.81 12.9085 67.81 13.9748C67.81 15.0497 68.2808 15.6684 69.1175 15.6684C69.9512 15.6684 70.4262 15.0454 70.4262 13.9748Z" fill="#2A2A28"/>
      <path d="M72.4297 15.0453C72.4297 14.1599 73.0835 13.6494 74.2441 13.5768L75.5654 13.5V13.0754C75.5654 12.5559 75.2248 12.2625 74.5667 12.2625C74.0293 12.2625 73.6569 12.4615 73.5501 12.8093H72.618C72.7164 11.9643 73.5046 11.4224 74.6112 11.4224C75.8342 11.4224 76.5239 12.0363 76.5239 13.0754V16.4365H75.5972V15.7452H75.521C75.3664 15.9932 75.1493 16.1953 74.8919 16.331C74.6344 16.4667 74.3459 16.5311 74.0558 16.5175C73.851 16.539 73.644 16.517 73.4482 16.4529C73.2523 16.3887 73.072 16.284 72.9188 16.1452C72.7656 16.0065 72.6429 15.837 72.5587 15.6476C72.4744 15.4581 72.4305 15.253 72.4297 15.0453ZM75.5654 14.625V14.2138L74.3742 14.2906C73.7024 14.3359 73.3977 14.5663 73.3977 15C73.3977 15.4427 73.7786 15.7004 74.3023 15.7004C74.4557 15.716 74.6107 15.7004 74.7581 15.6544C74.9054 15.6084 75.0421 15.5331 75.1599 15.4327C75.2778 15.3324 75.3744 15.2092 75.4441 15.0704C75.5137 14.9317 75.555 14.7802 75.5654 14.625Z" fill="#2A2A28"/>
      <path d="M77.7891 13.975C77.7891 12.4206 78.5815 11.4359 79.814 11.4359C80.1189 11.4217 80.4215 11.4954 80.6864 11.6482C80.9513 11.801 81.1676 12.0267 81.31 12.2989H81.3819V9.59717H82.3446V16.4367H81.4221V15.6595H81.3459C81.1925 15.9298 80.9687 16.1527 80.6987 16.304C80.4286 16.4553 80.1227 16.5292 79.814 16.5177C78.5731 16.5178 77.7891 15.5331 77.7891 13.975ZM78.7836 13.975C78.7836 15.0183 79.2713 15.6462 80.087 15.6462C80.8984 15.6462 81.3999 15.0093 81.3999 13.9792C81.3999 12.954 80.8932 12.308 80.087 12.308C79.2766 12.308 78.7836 12.9401 78.7836 13.975Z" fill="#2A2A28"/>
      <path d="M86.3293 13.9747C86.2986 13.6515 86.3353 13.3253 86.4369 13.0172C86.5386 12.709 86.703 12.4257 86.9196 12.1854C87.1362 11.9451 87.4002 11.753 87.6947 11.6217C87.9892 11.4903 88.3077 11.4224 88.6298 11.4224C88.9518 11.4224 89.2703 11.4903 89.5648 11.6217C89.8593 11.753 90.1233 11.9451 90.3399 12.1854C90.5565 12.4257 90.7209 12.709 90.8226 13.0172C90.9243 13.3253 90.9609 13.6515 90.9303 13.9747C90.9615 14.2983 90.9253 14.625 90.8239 14.9336C90.7225 15.2422 90.5582 15.5261 90.3415 15.7669C90.1249 16.0077 89.8607 16.2001 89.5659 16.3317C89.2711 16.4634 88.9522 16.5314 88.6298 16.5314C88.3073 16.5314 87.9885 16.4634 87.6937 16.3317C87.3989 16.2001 87.1347 16.0077 86.918 15.7669C86.7013 15.5261 86.537 15.2422 86.4356 14.9336C86.3343 14.625 86.298 14.2983 86.3293 13.9747ZM89.94 13.9747C89.94 12.9084 89.465 12.2849 88.6314 12.2849C87.7945 12.2849 87.3238 12.9084 87.3238 13.9747C87.3238 15.0496 87.7946 15.6683 88.6314 15.6683C89.465 15.6683 89.94 15.0453 89.94 13.9747Z" fill="#2A2A28"/>
      <path d="M92.2207 11.5173H93.1475V12.2988H93.2194C93.3415 12.0181 93.5473 11.7828 93.8082 11.6257C94.0692 11.4686 94.3722 11.3975 94.6752 11.4223C94.9125 11.4044 95.1508 11.4404 95.3725 11.5279C95.5941 11.6154 95.7934 11.7521 95.9556 11.9278C96.1177 12.1035 96.2386 12.3138 96.3092 12.543C96.3799 12.7722 96.3985 13.0145 96.3636 13.252V16.4364H95.4009V13.4958C95.4009 12.7052 95.0602 12.3121 94.3483 12.3121C94.1871 12.3045 94.0262 12.3322 93.8767 12.3932C93.7271 12.4542 93.5924 12.547 93.4817 12.6655C93.3711 12.7839 93.2872 12.925 93.2357 13.0792C93.1842 13.2333 93.1664 13.3969 93.1834 13.5587V16.4365H92.2207V11.5173Z" fill="#2A2A28"/>
      <path d="M101.805 10.293V11.5401H102.862V12.3579H101.805V14.8873C101.805 15.4026 102.016 15.6282 102.495 15.6282C102.618 15.6278 102.74 15.6203 102.862 15.6058V16.4145C102.689 16.4457 102.514 16.4623 102.338 16.4641C101.268 16.4641 100.841 16.0843 100.841 15.1359V12.3578H100.066V11.5401H100.841V10.293H101.805Z" fill="#2A2A28"/>
      <path d="M104.176 9.59717H105.13V12.308H105.206C105.334 12.0247 105.546 11.7881 105.812 11.6304C106.078 11.4727 106.386 11.4016 106.694 11.4268C106.93 11.4139 107.166 11.4536 107.385 11.5432C107.604 11.6329 107.801 11.7702 107.962 11.9453C108.122 12.1205 108.242 12.3292 108.313 12.5566C108.385 12.7839 108.405 13.0244 108.374 13.2607V16.4367H107.41V13.5002C107.41 12.7145 107.047 12.3165 106.367 12.3165C106.202 12.3029 106.035 12.3258 105.879 12.3838C105.724 12.4417 105.582 12.5333 105.465 12.6521C105.348 12.7709 105.258 12.914 105.202 13.0715C105.146 13.2289 105.124 13.3969 105.139 13.5637V16.4366H104.176V9.59717Z" fill="#2A2A28"/>
      <path d="M113.987 15.1083C113.857 15.5579 113.573 15.9467 113.187 16.2069C112.8 16.4671 112.336 16.5819 111.874 16.5314C111.552 16.54 111.233 16.4779 110.938 16.3495C110.642 16.2211 110.378 16.0295 110.164 15.7879C109.95 15.5463 109.79 15.2606 109.696 14.9505C109.602 14.6405 109.576 14.3135 109.62 13.9924C109.577 13.6702 109.604 13.3426 109.697 13.0316C109.791 12.7206 109.95 12.4335 110.163 12.1898C110.377 11.9462 110.639 11.7515 110.934 11.6191C111.228 11.4867 111.547 11.4196 111.869 11.4224C113.227 11.4224 114.046 12.3575 114.046 13.9022V14.241H110.601V14.2954C110.586 14.4759 110.608 14.6576 110.667 14.8288C110.726 15.0001 110.819 15.1571 110.941 15.2897C111.064 15.4224 111.212 15.5279 111.377 15.5993C111.542 15.6708 111.72 15.7066 111.9 15.7046C112.13 15.7325 112.364 15.6907 112.57 15.5845C112.777 15.4783 112.948 15.3125 113.061 15.1082L113.987 15.1083ZM110.601 13.523H113.065C113.077 13.3579 113.055 13.192 112.999 13.0361C112.944 12.8802 112.857 12.7377 112.744 12.6177C112.631 12.4976 112.494 12.4028 112.343 12.3393C112.191 12.2757 112.028 12.2448 111.864 12.2486C111.698 12.2465 111.532 12.2781 111.378 12.3414C111.224 12.4047 111.084 12.4984 110.966 12.6172C110.848 12.736 110.755 12.8773 110.693 13.0329C110.63 13.1884 110.599 13.3551 110.601 13.523Z" fill="#2A2A28"/>
    </g>
  </g>
  <defs>
    <clipPath id="clip0_179_1721">
      <rect width="130" height="45" fill="white" transform="translate(0.496094 0.046875)"/>
    </clipPath>
  </defs>
</svg>