<svg xmlns="http://www.w3.org/2000/svg" width="146" height="44" viewBox="0 0 146 44" fill="none">
  <g clip-path="url(#clip0_179_1754)">
    <path d="M139.275 43.4211H5.8469C2.8581 43.4211 0.509766 41.0728 0.509766 38.084V6.06125C0.509766 3.07246 2.8581 0.724121 5.8469 0.724121H139.275C142.264 0.724121 144.612 3.07246 144.612 6.06125V38.084C144.612 41.0728 142.264 43.4211 139.275 43.4211Z" fill="white"/>
    <path d="M139.275 1.57806C141.731 1.57806 143.758 3.60617 143.758 6.06125V38.084C143.758 40.5391 141.731 42.5672 139.275 42.5672H5.8469C3.39182 42.5672 1.36371 40.5391 1.36371 38.084V6.06125C1.36371 3.60617 3.39182 1.57806 5.8469 1.57806H139.275ZM139.275 0.724121H5.8469C2.8581 0.724121 0.509766 3.1792 0.509766 6.06125V38.084C0.509766 41.0728 2.8581 43.4211 5.8469 43.4211H139.275C142.264 43.4211 144.612 41.0728 144.612 38.084V6.06125C144.612 3.1792 142.264 0.724121 139.275 0.724121Z" fill="white"/>
    <path d="M51.1057 11.6118C51.1057 12.4658 50.8922 13.213 50.3585 13.7467C49.7181 14.3871 48.9709 14.7074 48.0102 14.7074C47.0495 14.7074 46.3023 14.3871 45.6619 13.7467C45.0214 13.1062 44.7012 12.359 44.7012 11.3983C44.7012 10.4377 45.0214 9.69049 45.6619 9.05004C46.3023 8.40958 47.0495 8.08936 48.0102 8.08936C48.4372 8.08936 48.8641 8.1961 49.2911 8.40958C49.7181 8.62307 50.0383 8.83655 50.2518 9.15678L49.7181 9.69049C49.2911 9.15678 48.7574 8.9433 48.0102 8.9433C47.3697 8.9433 46.7293 9.15678 46.3023 9.69049C45.7686 10.1174 45.5551 10.7579 45.5551 11.5051C45.5551 12.2523 45.7686 12.8927 46.3023 13.3197C46.836 13.7467 47.3697 14.0669 48.0102 14.0669C48.7574 14.0669 49.2911 13.8534 49.8248 13.3197C50.145 12.9995 50.3585 12.5725 50.3585 12.0388H48.0102V11.1849H51.1057V11.6118ZM56.0159 8.9433H53.1338V10.9714H55.8024V11.7186H53.1338V13.7467H56.0159V14.6006H52.2799V8.1961H56.0159V8.9433ZM59.5384 14.6006H58.6845V8.9433H56.8698V8.1961H61.353V8.9433H59.5384V14.6006ZM64.4485 14.6006V8.1961H65.3024V14.6006H64.4485ZM68.9316 14.6006H68.0778V8.9433H66.2631V8.1961H70.6395V8.9433H68.8249V14.6006H68.9316ZM79.0722 13.7467C78.4318 14.3871 77.6845 14.7074 76.724 14.7074C75.7633 14.7074 75.016 14.3871 74.3756 13.7467C73.7351 13.1062 73.4149 12.359 73.4149 11.3983C73.4149 10.4377 73.7351 9.69049 74.3756 9.05004C75.016 8.40958 75.7633 8.08936 76.724 8.08936C77.6845 8.08936 78.4318 8.40958 79.0722 9.05004C79.7128 9.69049 80.0329 10.4377 80.0329 11.3983C80.0329 12.359 79.7128 13.1062 79.0722 13.7467ZM75.0161 13.213C75.443 13.6399 76.0835 13.9602 76.724 13.9602C77.3644 13.9602 78.0048 13.7467 78.4317 13.213C78.8587 12.786 79.1789 12.1455 79.1789 11.3983C79.1789 10.6511 78.9655 10.0107 78.4317 9.58375C78.0048 9.15678 77.3644 8.83655 76.724 8.83655C76.0835 8.83655 75.443 9.05004 75.0161 9.58375C74.5891 10.0107 74.2689 10.6511 74.2689 11.3983C74.2689 12.1455 74.4824 12.786 75.0161 13.213ZM81.2071 14.6006V8.1961H82.1678L85.2634 13.213V8.1961H86.1172V14.6006H85.2634L81.9543 9.37027V14.6006H81.2071Z" fill="#2A2A28"/>
    <path d="M73.2014 23.994C70.6395 23.994 68.6114 25.9153 68.6114 28.5839C68.6114 31.1457 70.6395 33.1738 73.2014 33.1738C75.7632 33.1738 77.7913 31.2525 77.7913 28.5839C77.7913 25.8086 75.7632 23.994 73.2014 23.994ZM73.2014 31.2525C71.8137 31.2525 70.6395 30.0783 70.6395 28.4771C70.6395 26.876 71.8137 25.7018 73.2014 25.7018C74.589 25.7018 75.7632 26.7693 75.7632 28.4771C75.7632 30.0783 74.589 31.2525 73.2014 31.2525ZM63.2743 23.994C60.7125 23.994 58.6844 25.9153 58.6844 28.5839C58.6844 31.1457 60.7125 33.1738 63.2743 33.1738C65.8361 33.1738 67.8642 31.2525 67.8642 28.5839C67.8642 25.8086 65.8361 23.994 63.2743 23.994ZM63.2743 31.2525C61.8866 31.2525 60.7125 30.0783 60.7125 28.4771C60.7125 26.876 61.8866 25.7018 63.2743 25.7018C64.662 25.7018 65.8361 26.7693 65.8361 28.4771C65.8361 30.0783 64.662 31.2525 63.2743 31.2525ZM51.4259 25.3816V27.303H56.0158C55.9091 28.3704 55.4821 29.2243 54.9484 29.7581C54.3079 30.3985 53.2405 31.1457 51.4259 31.1457C48.5438 31.1457 46.409 28.9041 46.409 26.0221C46.409 23.14 48.6506 20.8984 51.4259 20.8984C52.9203 20.8984 54.0944 21.5389 54.9484 22.2861L56.336 20.8984C55.1619 19.831 53.6675 18.9771 51.5326 18.9771C47.6899 18.9771 44.3809 22.1793 44.3809 26.0221C44.3809 29.8648 47.6899 33.0671 51.5326 33.0671C53.6675 33.0671 55.1619 32.4266 56.4428 31.039C57.7237 29.7581 58.1507 27.9434 58.1507 26.5558C58.1507 26.1288 58.1507 25.7018 58.0439 25.3816H51.4259ZM99.8865 26.876C99.46 25.8086 98.3926 23.994 96.0443 23.994C93.6959 23.994 91.7746 25.8086 91.7746 28.5839C91.7746 31.1457 93.6959 33.1738 96.2578 33.1738C98.2859 33.1738 99.5668 31.8929 99.9938 31.1457L98.4994 30.0783C97.9656 30.8255 97.3252 31.3592 96.2578 31.3592C95.1903 31.3592 94.5499 30.9322 94.0162 29.9715L100.1 27.4097L99.8865 26.876ZM93.696 28.3704C93.696 26.6625 95.0836 25.7018 96.0443 25.7018C96.7915 25.7018 97.5387 26.1288 97.7522 26.6625L93.696 28.3704ZM88.679 32.7468H90.7072V19.404H88.679V32.7468ZM85.4768 24.9546C84.9431 24.4209 84.0891 23.8872 83.0217 23.8872C80.7801 23.8872 78.6452 25.9153 78.6452 28.4771C78.6452 31.039 80.6734 32.9603 83.0217 32.9603C84.0891 32.9603 84.9431 32.4266 85.37 31.8929H85.4768V32.5334C85.4768 34.2412 84.5161 35.2019 83.0217 35.2019C81.8475 35.2019 80.9936 34.348 80.7801 33.6008L79.0722 34.348C79.6059 35.5222 80.8868 37.0166 83.1284 37.0166C85.4768 37.0166 87.3981 35.6289 87.3981 32.3199V24.2074H85.4768V24.9546ZM83.1284 31.2525C81.7408 31.2525 80.5666 30.0783 80.5666 28.4771C80.5666 26.876 81.7408 25.7018 83.1284 25.7018C84.5161 25.7018 85.5835 26.876 85.5835 28.4771C85.5835 30.0783 84.5161 31.2525 83.1284 31.2525ZM109.174 19.404H104.37V32.7468H106.398V27.7299H109.174C111.415 27.7299 113.55 26.1288 113.55 23.567C113.55 21.0052 111.415 19.404 109.174 19.404ZM109.28 25.8086H106.398V21.2186H109.28C110.775 21.2186 111.628 22.4996 111.628 23.4602C111.522 24.6344 110.668 25.8086 109.28 25.8086ZM121.556 23.8872C120.061 23.8872 118.567 24.5277 118.033 25.9153L119.848 26.6625C120.275 25.9153 120.915 25.7018 121.662 25.7018C122.729 25.7018 123.691 26.3423 123.797 27.4097V27.5165C123.477 27.303 122.623 26.9827 121.769 26.9827C119.848 26.9827 117.927 28.0502 117.927 29.9715C117.927 31.7862 119.527 32.9603 121.235 32.9603C122.623 32.9603 123.264 32.3199 123.797 31.6794H123.904V32.7468H125.825V27.6232C125.612 25.2749 123.797 23.8872 121.556 23.8872ZM121.342 31.2525C120.702 31.2525 119.741 30.9322 119.741 30.0783C119.741 29.0109 120.915 28.6906 121.875 28.6906C122.729 28.6906 123.156 28.9041 123.691 29.1176C123.477 30.3985 122.41 31.2525 121.342 31.2525ZM132.55 24.2074L130.309 29.9715H130.201L127.853 24.2074H125.719L129.241 32.3199L127.213 36.8031H129.241L134.685 24.2074H132.55ZM114.617 32.7468H116.646V19.404H114.617V32.7468Z" fill="#2A2A28"/>
    <path d="M11.6106 8.72998C11.2903 9.05021 11.1836 9.58392 11.1836 10.2244V33.8145C11.1836 34.4549 11.3971 34.9887 11.7173 35.3089L11.824 35.4156L25.0601 22.1795V21.9661L11.6106 8.72998Z" fill="url(#paint0_linear_179_1754)"/>
    <path d="M29.3296 26.6625L24.9531 22.286V21.9658L29.3296 17.5894L29.4363 17.6961L34.6667 20.6849C36.1611 21.5388 36.1611 22.9265 34.6667 23.7804L29.3296 26.6625Z" fill="url(#paint1_linear_179_1754)"/>
    <path d="M29.4373 26.5559L24.9542 22.0728L11.6113 35.4156C12.145 35.9493 12.8922 35.9493 13.8529 35.5223L29.4373 26.5559Z" fill="url(#paint2_linear_179_1754)"/>
    <path d="M29.4373 17.5894L13.8529 8.7298C12.8922 8.19608 12.145 8.30283 11.6113 8.83654L24.9542 22.0726L29.4373 17.5894Z" fill="url(#paint3_linear_179_1754)"/>
    <path d="M29.3306 26.4492L13.8529 35.2021C12.999 35.7358 12.2518 35.6291 11.7181 35.2021L11.6113 35.3089L11.7181 35.4156C12.2518 35.8426 12.999 35.9493 13.8529 35.4156L29.3306 26.4492Z" fill="white"/>
    <path d="M11.6106 35.2021C11.2903 34.8819 11.1836 34.3482 11.1836 33.7077V33.8144C11.1836 34.4549 11.3971 34.9886 11.7173 35.3088V35.2021H11.6106ZM34.667 23.4604L29.3298 26.4492L29.4366 26.5559L34.667 23.5671C35.4142 23.1402 35.7344 22.6065 35.7344 22.0728C35.7344 22.6065 35.3074 23.0334 34.667 23.4604Z" fill="white"/>
    <path d="M13.8522 8.83686L34.667 20.6853C35.3074 21.1122 35.7344 21.5392 35.7344 22.0729C35.7344 21.5392 35.4142 21.0055 34.667 20.5785L13.8522 8.73011C12.3578 7.87617 11.1836 8.51663 11.1836 10.2245V10.3312C11.1836 8.73011 12.3578 7.98292 13.8522 8.83686Z" fill="white"/>
  </g>
  <defs>
    <linearGradient id="paint0_linear_179_1754" x1="131.31" y1="2.79084" x2="122.681" y2="58.7881" gradientUnits="userSpaceOnUse">
      <stop stop-color="#00A0FF"/>
      <stop offset="0.007" stop-color="#00A1FF"/>
      <stop offset="0.26" stop-color="#00BEFF"/>
      <stop offset="0.512" stop-color="#00D2FF"/>
      <stop offset="0.76" stop-color="#00DFFF"/>
      <stop offset="1" stop-color="#00E3FF"/>
    </linearGradient>
    <linearGradient id="paint1_linear_179_1754" x1="155.743" y1="21.8264" x2="-187.79" y2="21.8264" gradientUnits="userSpaceOnUse">
      <stop stop-color="#FFE000"/>
      <stop offset="0.409" stop-color="#FFBD00"/>
      <stop offset="0.775" stop-color="#FFA500"/>
      <stop offset="1" stop-color="#FF9C00"/>
    </linearGradient>
    <linearGradient id="paint2_linear_179_1754" x1="124.999" y1="8.33042" x2="74.5464" y2="139.746" gradientUnits="userSpaceOnUse">
      <stop stop-color="#FF3A44"/>
      <stop offset="1" stop-color="#C31162"/>
    </linearGradient>
    <linearGradient id="paint3_linear_179_1754" x1="-26.2653" y1="-22.5578" x2="-3.55145" y2="36.3309" gradientUnits="userSpaceOnUse">
      <stop stop-color="#32A071"/>
      <stop offset="0.069" stop-color="#2DA771"/>
      <stop offset="0.476" stop-color="#15CF74"/>
      <stop offset="0.801" stop-color="#06E775"/>
      <stop offset="1" stop-color="#00F076"/>
    </linearGradient>
    <clipPath id="clip0_179_1754">
      <rect width="144.971" height="43.69" fill="white" transform="translate(0.509766 0.046875)"/>
    </clipPath>
  </defs>
</svg>