<?xml version="1.0" standalone="no"?>
<!DOCTYPE svg PUBLIC "-//W3C//DTD SVG 20010904//EN"
 "http://www.w3.org/TR/2001/REC-SVG-20010904/DTD/svg10.dtd">
<svg version="1.0" xmlns="http://www.w3.org/2000/svg"
 width="225.000000pt" height="225.000000pt" viewBox="0 0 225.000000 225.000000"
 preserveAspectRatio="xMidYMid meet">

<g transform="translate(0.000000,225.000000) scale(0.100000,-0.100000)"
fill="#000000" stroke="none">
<path d="M915 2240 c-257 -42 -532 -216 -704 -445 -104 -140 -191 -359 -197
-500 l-4 -80 15 87 c67 409 352 747 743 879 280 95 594 74 852 -56 216 -110
400 -291 501 -496 38 -76 86 -213 95 -269 4 -22 11 -43 17 -47 29 -18 -39 212
-98 328 -135 270 -406 493 -698 576 -82 23 -113 26 -282 29 -104 1 -212 -1
-240 -6z"/>
<path d="M1310 2188 c0 -7 -50 -229 -56 -250 -4 -13 4 -19 32 -27 21 -6 39 -9
40 -8 5 7 64 271 60 274 -6 6 -76 16 -76 11z"/>
<path d="M856 2163 c-15 -4 -17 -11 -13 -41 6 -41 47 -235 50 -239 1 -1 33 5
72 13 73 15 85 24 85 62 0 23 -2 24 -48 17 l-49 -6 -17 83 c-27 130 -24 125
-80 111z"/>
<path d="M1439 2024 c-33 -70 -58 -128 -57 -129 2 -1 17 -10 34 -18 l31 -16
34 70 c34 71 57 101 47 61 -4 -12 -3 -24 2 -27 16 -10 20 -67 5 -95 -8 -16
-15 -33 -15 -38 0 -10 58 -38 64 -31 10 11 116 234 116 245 0 10 -59 39 -65
32 -2 -2 -12 -21 -23 -43 l-20 -40 -12 63 c-11 53 -17 65 -41 77 -15 8 -31 15
-34 15 -3 0 -33 -57 -66 -126z"/>
<path d="M708 2104 c-16 -8 -28 -17 -28 -20 0 -3 16 -42 36 -87 20 -45 45
-101 55 -125 l19 -43 30 16 c16 8 30 17 30 19 0 5 -107 246 -111 250 -2 3 -16
-2 -31 -10z"/>
<path d="M566 2035 l-30 -24 38 -87 c33 -79 34 -86 14 -68 -13 11 -45 39 -72
62 l-48 42 -30 -21 c-16 -12 -28 -25 -26 -29 2 -5 53 -47 115 -94 l112 -86 33
29 32 29 -54 136 c-29 75 -54 136 -54 136 -1 -1 -14 -11 -30 -25z"/>
<path d="M1792 1938 c-22 -11 -21 -12 28 -64 54 -57 63 -89 32 -117 -25 -23
-75 -31 -102 -17 -22 12 -22 13 26 61 l48 49 -27 27 -27 28 -72 -72 -72 -72
29 -32 c35 -37 98 -68 138 -69 60 0 140 54 153 104 10 42 -4 75 -58 132 -53
57 -59 59 -96 42z"/>
<path d="M1025 1869 c-230 -33 -439 -176 -553 -377 -34 -61 -82 -199 -81 -235
0 -12 8 10 19 48 52 197 169 354 340 456 291 173 658 127 898 -112 309 -308
284 -819 -53 -1092 -80 -64 -144 -100 -240 -133 -73 -26 -93 -28 -227 -29 -80
0 -144 -2 -142 -5 3 -2 58 -7 122 -11 l117 -6 -101 -1 c-119 -2 -223 21 -325
72 -74 36 -185 114 -193 134 -3 7 16 -5 42 -27 84 -70 250 -152 305 -150 12 0
0 7 -28 14 -74 21 -203 89 -272 145 -77 62 -146 153 -193 255 -49 106 -61 157
-70 300 l-7 120 -1 -97 c-4 -195 60 -371 184 -507 20 -23 32 -41 28 -41 -5 0
-23 17 -41 37 -25 30 -35 36 -47 28 -9 -5 -74 -50 -145 -99 l-130 -89 -20 24
c-29 35 -126 234 -149 304 -11 33 -25 94 -32 135 -17 109 -18 110 -19 54 -2
-81 18 -161 73 -289 66 -153 129 -249 236 -355 151 -151 269 -225 455 -286
l110 -36 245 -1 245 -1 95 33 c164 56 303 134 413 232 61 53 172 187 215 257
63 103 120 260 128 352 3 33 -2 21 -20 -45 -40 -152 -159 -384 -191 -371 -8 3
-72 46 -144 96 -71 49 -132 90 -134 90 -3 0 -34 -29 -69 -64 -35 -35 -95 -84
-133 -108 -66 -42 -171 -89 -198 -87 -7 0 15 10 48 22 324 121 527 453 485
792 -21 169 -92 314 -213 439 -116 118 -265 192 -433 216 -85 11 -113 11 -199
-1z m-585 -1359 c13 0 18 -7 17 -20 -1 -19 -9 -24 -33 -21 -7 1 -14 -6 -18
-14 -10 -28 24 -29 52 -3 25 24 64 48 76 48 3 0 6 -7 6 -15 0 -8 -18 -27 -40
-41 -22 -15 -40 -27 -40 -28 0 -1 16 0 35 2 36 4 44 -5 23 -26 -18 -18 -1 -27
26 -13 30 16 60 11 64 -12 3 -12 -3 -17 -22 -17 -14 0 -26 -4 -26 -10 0 -10
14 -14 38 -11 17 3 15 -16 -4 -23 -19 -7 -49 8 -57 28 -3 8 -16 16 -29 18 -16
2 -23 9 -22 25 0 18 -3 20 -17 12 -13 -6 -20 -5 -26 5 -4 8 -19 16 -33 18 -20
2 -26 9 -28 36 -2 20 1 32 9 32 8 0 9 3 0 13 -13 16 -3 30 17 22 7 -3 22 -5
32 -5z m1413 -37 c7 -38 -27 -93 -58 -93 -13 0 -29 -10 -39 -25 -15 -23 -45
-33 -59 -19 -6 7 19 64 29 64 3 0 2 -10 -1 -21 -5 -15 -4 -19 5 -14 6 4 9 16
6 28 -6 23 9 57 25 57 7 0 9 -13 7 -32 -5 -32 -6 -33 30 19 11 16 12 16 6 -6
-4 -17 -3 -21 6 -16 6 4 9 16 7 27 -7 25 10 71 22 64 5 -3 11 -18 14 -33z
m-153 -77 c0 -8 -11 -28 -25 -44 -30 -36 -33 -52 -5 -27 26 24 26 5 -1 -24
-13 -14 -27 -20 -39 -16 -13 4 -22 -1 -30 -15 -9 -16 -18 -20 -34 -16 -16 4
-29 -1 -41 -14 -21 -23 -31 -25 -49 -7 -11 10 -12 16 -1 37 19 37 62 74 70 61
3 -6 -8 -24 -26 -41 -18 -16 -30 -32 -26 -36 8 -8 57 23 57 37 0 17 43 69 57
69 21 0 15 -17 -14 -44 -15 -14 -24 -28 -20 -32 9 -9 57 35 57 52 0 12 53 74
64 74 3 0 6 -6 6 -14z m-383 -2 c-3 -3 -12 -4 -19 -1 -8 3 -5 6 6 6 11 1 17
-2 13 -5z m-44 -11 c-7 -2 -19 -2 -25 0 -7 3 -2 5 12 5 14 0 19 -2 13 -5z
m-533 -62 c0 -6 -10 -17 -22 -25 -12 -9 -19 -18 -16 -21 3 -3 17 4 32 16 31
25 43 20 26 -11 -17 -31 -6 -35 14 -5 20 31 42 24 25 -7 -12 -21 -12 -21 16 0
35 28 85 30 85 4 0 -10 -5 -23 -12 -30 -6 -6 -8 -15 -4 -19 4 -4 21 7 37 25
17 18 35 30 40 26 6 -4 1 -16 -12 -30 -28 -30 -17 -31 23 -3 36 26 45 20 23
-15 -17 -25 -17 -26 1 -19 13 5 8 -6 -16 -34 -19 -23 -38 -42 -42 -42 -12 -1
-10 37 2 44 6 3 10 11 10 16 0 6 -5 7 -10 4 -6 -4 -16 -2 -23 4 -8 6 -18 6
-27 1 -21 -14 -30 -12 -30 5 0 11 -7 14 -24 9 -16 -4 -25 -1 -30 11 -4 12 -14
14 -41 9 -27 -5 -35 -3 -35 8 0 9 -9 14 -22 14 -27 -1 -37 36 -18 60 14 16 50
19 50 5z m726 -39 c-8 -15 -14 -37 -13 -47 1 -14 -4 -20 -18 -20 -11 -1 -27
-5 -34 -10 -10 -5 -16 -4 -19 3 -2 8 -12 6 -28 -7 -26 -21 -49 -19 -58 4 -2 7
9 32 26 55 27 36 32 40 41 25 6 -11 5 -26 -2 -42 -16 -34 5 -19 24 18 9 16 23
29 31 29 15 0 15 -3 0 -27 -11 -18 -6 -15 14 10 38 44 57 49 36 9z m-306 -1
c0 -10 -11 -26 -25 -35 -14 -9 -25 -23 -25 -31 0 -23 18 -18 36 10 18 28 52
50 62 41 3 -4 7 -21 8 -39 2 -26 -2 -34 -23 -44 -20 -10 -30 -10 -40 -1 -10 8
-17 8 -25 0 -21 -21 -48 -14 -48 12 0 14 5 28 10 31 6 4 8 15 5 25 -4 13 2 23
22 33 38 20 43 20 43 -2z"/>
<path d="M837 253 c-12 -12 -7 -22 8 -17 8 4 15 10 15 15 0 11 -14 12 -23 2z"/>
<path d="M1326 241 c-4 -7 -5 -15 -2 -18 9 -9 19 4 14 18 -4 11 -6 11 -12 0z"/>
<path d="M1163 215 c-9 -25 4 -29 17 -6 7 15 7 21 0 21 -6 0 -13 -7 -17 -15z"/>
<path d="M320 1815 c-28 -29 -38 -15 98 -134 l93 -81 26 30 c14 17 24 32 22
34 -124 109 -203 176 -209 176 -3 0 -17 -11 -30 -25z"/>
<path d="M871 1726 c2 -2 24 -6 48 -9 29 -4 40 -2 30 4 -13 8 -88 14 -78 5z"/>
<path d="M855 1680 c10 -11 20 -20 23 -20 3 0 -3 9 -13 20 -10 11 -20 20 -23
20 -3 0 3 -9 13 -20z"/>
<path d="M1918 1629 l-117 -70 21 -35 20 -34 32 19 c142 85 206 125 206 128 0
11 -31 63 -38 63 -4 -1 -60 -32 -124 -71z"/>
<path d="M205 1638 c-28 -60 -25 -90 12 -130 58 -62 175 -58 233 8 l31 36 -22
24 -23 24 -29 -30 c-34 -34 -87 -41 -125 -14 -26 18 -27 32 -5 79 19 39 19 40
-20 49 -26 6 -29 3 -52 -46z"/>
<path d="M872 1638 c-7 -7 -11 -23 -11 -37 l2 -26 4 25 c3 14 10 31 15 38 13
15 6 16 -10 0z"/>
<path d="M1086 1597 c-11 -8 -16 -20 -13 -28 4 -10 6 -9 6 4 1 9 8 17 16 17 8
0 15 5 15 10 0 13 -3 13 -24 -3z"/>
<path d="M887 1549 c12 -12 24 -21 27 -18 2 2 -8 13 -22 23 l-27 19 22 -24z"/>
<path d="M1066 1529 c-10 -10 -16 -24 -13 -31 4 -10 6 -10 6 1 1 8 9 20 18 27
10 7 16 14 13 17 -3 2 -13 -4 -24 -14z"/>
<path d="M926 1515 c-3 -8 -1 -15 4 -15 6 0 10 7 10 15 0 8 -2 15 -4 15 -2 0
-6 -7 -10 -15z"/>
<path d="M1923 1475 c-28 -14 -59 -35 -69 -46 -18 -20 -18 -21 6 -40 32 -24
35 -24 70 3 34 25 47 18 52 -26 3 -27 -1 -31 -35 -39 -36 -9 -38 -11 -31 -41
3 -17 9 -34 13 -38 3 -4 51 6 105 22 55 17 101 28 104 25 2 -2 17 2 33 10 l28
15 -14 47 c-18 61 -43 94 -86 115 -49 26 -115 23 -176 -7z m164 -70 c21 -15
50 -81 40 -91 -3 -3 -8 9 -12 26 -6 28 -10 31 -36 25 -16 -4 -29 -3 -29 2 0 4
-3 18 -6 31 -7 26 11 29 43 7z"/>
<path d="M902 1470 c0 -14 2 -19 5 -12 2 6 2 18 0 25 -3 6 -5 1 -5 -13z"/>
<path d="M1060 1476 c0 -2 8 -10 18 -17 15 -13 16 -12 3 4 -13 16 -21 21 -21
13z"/>
<path d="M865 1439 c-4 -6 -5 -12 -2 -15 2 -3 7 2 10 11 7 17 1 20 -8 4z"/>
<path d="M1111 1433 c7 -12 15 -20 18 -17 3 2 -3 12 -13 22 -17 16 -18 16 -5
-5z"/>
<path d="M166 1431 c-3 -5 6 -23 20 -41 29 -34 27 -48 -4 -31 -28 15 -32 14
-32 -6 0 -9 3 -14 6 -10 4 3 19 0 35 -9 28 -14 29 -14 29 11 0 14 5 25 10 25
6 0 9 15 9 33 -2 30 -2 30 -6 5 -4 -26 -23 -41 -23 -18 0 6 -7 10 -15 10 -8 0
-15 5 -15 11 0 5 5 7 11 3 7 -4 10 -1 7 6 -6 18 -24 24 -32 11z"/>
<path d="M809 1373 l-34 -38 38 34 c20 19 37 36 37 38 0 8 -8 0 -41 -34z"/>
<path d="M911 1384 c0 -11 3 -14 6 -6 3 7 2 16 -1 19 -3 4 -6 -2 -5 -13z"/>
<path d="M101 1368 c-1 -23 7 -32 52 -58 28 -16 57 -30 62 -30 15 1 -35 39
-72 54 -19 9 -33 23 -36 38 -4 21 -4 21 -6 -4z"/>
<path d="M1111 1379 c-1 -9 9 -24 22 -35 22 -19 22 -19 6 1 -9 11 -19 27 -22
35 -5 13 -6 13 -6 -1z"/>
<path d="M1740 1383 c57 -11 91 -78 53 -103 -17 -11 -17 -11 0 -6 10 3 21 6
23 6 2 0 4 12 4 27 0 36 -46 83 -79 82 l-26 -2 25 -4z"/>
<path d="M1001 1344 c0 -11 3 -14 6 -6 3 7 2 16 -1 19 -3 4 -6 -2 -5 -13z"/>
<path d="M695 1330 c-3 -6 1 -7 9 -4 18 7 21 14 7 14 -6 0 -13 -4 -16 -10z"/>
<path d="M92 1267 c-2 -43 2 -57 17 -71 11 -10 26 -16 33 -13 8 3 2 9 -14 16
-27 10 -41 51 -18 51 21 0 80 -29 80 -39 0 -6 5 -11 10 -11 6 0 9 15 9 33 -1
17 -3 24 -6 15 -4 -16 -8 -15 -49 4 -33 17 -44 28 -44 45 0 47 -15 21 -18 -30z"/>
<path d="M1456 1304 c-4 -9 -4 -19 -1 -22 3 -3 5 0 5 7 0 7 4 9 10 6 6 -3 7 1
4 9 -8 20 -10 20 -18 0z"/>
<path d="M681 1283 c7 -10 15 -20 16 -22 2 -2 3 3 3 11 0 9 -7 19 -16 22 -15
6 -15 4 -3 -11z"/>
<path d="M960 1285 c0 -9 9 -15 25 -15 16 0 25 6 25 15 0 9 -9 15 -25 15 -16
0 -25 -6 -25 -15z"/>
<path d="M2231 1274 c0 -11 3 -14 6 -6 3 7 2 16 -1 19 -3 4 -6 -2 -5 -13z"/>
<path d="M1432 1255 c-11 -12 -10 -15 3 -15 8 0 15 7 15 15 0 18 -2 18 -18 0z"/>
<path d="M1348 1253 c7 -3 16 -2 19 1 4 3 -2 6 -13 5 -11 0 -14 -3 -6 -6z"/>
<path d="M960 1215 c0 -32 -3 -35 -28 -35 -68 0 -88 -95 -32 -151 21 -22 38
-29 57 -27 37 4 40 24 4 36 -35 12 -55 45 -47 78 6 24 46 36 46 14 0 -5 11
-10 25 -10 24 0 25 2 25 65 0 63 -1 65 -25 65 -22 0 -25 -4 -25 -35z"/>
<path d="M1485 1198 l-20 -21 21 11 c12 6 24 8 28 4 4 -3 4 1 0 11 -3 9 -7 17
-8 16 0 0 -10 -10 -21 -21z"/>
<path d="M1550 1186 c0 -2 16 -6 35 -8 19 -2 35 0 35 4 0 4 -16 8 -35 8 -19 0
-35 -2 -35 -4z"/>
<path d="M1731 1174 c0 -11 3 -14 6 -6 3 7 2 16 -1 19 -3 4 -6 -2 -5 -13z"/>
<path d="M2242 1170 c0 -14 2 -19 5 -12 2 6 2 18 0 25 -3 6 -5 1 -5 -13z"/>
<path d="M698 1173 c7 -3 16 -2 19 1 4 3 -2 6 -13 5 -11 0 -14 -3 -6 -6z"/>
<path d="M614 1130 c1 -9 12 -15 29 -16 24 -1 24 -1 3 3 -14 2 -27 10 -29 16
-2 7 -3 5 -3 -3z"/>
<path d="M1492 1130 c0 -14 2 -19 5 -12 2 6 2 18 0 25 -3 6 -5 1 -5 -13z"/>
<path d="M184 1081 c-8 -27 -18 -37 -44 -46 l-35 -12 38 -7 c30 -6 37 -11 37
-31 0 -35 17 -40 25 -6 5 23 14 31 43 39 l37 9 -37 7 c-31 7 -38 13 -46 44
l-9 37 -9 -34z"/>
<path d="M2046 1078 c-7 -32 -12 -37 -44 -44 l-37 -7 37 -9 c33 -9 38 -15 45
-46 l7 -37 9 37 c7 31 14 38 45 46 l37 9 -37 7 c-31 7 -38 13 -46 44 l-9 37
-7 -37z"/>
<path d="M1686 1083 c-6 -14 -5 -15 5 -6 7 7 10 15 7 18 -3 3 -9 -2 -12 -12z"/>
<path d="M1608 1083 c7 -3 16 -2 19 1 4 3 -2 6 -13 5 -11 0 -14 -3 -6 -6z"/>
<path d="M1491 1054 c0 -11 3 -14 6 -6 3 7 2 16 -1 19 -3 4 -6 -2 -5 -13z"/>
<path d="M1637 1053 c3 -7 6 -13 8 -13 1 0 7 6 13 13 8 10 6 13 -7 13 -11 0
-17 -6 -14 -13z"/>
<path d="M630 1053 c0 -6 8 -17 18 -24 16 -13 16 -13 2 6 -8 11 -16 22 -17 24
-2 2 -3 0 -3 -6z"/>
<path d="M1448 1043 c6 -2 18 -2 25 0 6 3 1 5 -13 5 -14 0 -19 -2 -12 -5z"/>
<path d="M781 1014 c0 -11 3 -14 6 -6 3 7 2 16 -1 19 -3 4 -6 -2 -5 -13z"/>
<path d="M772 925 c0 -16 2 -22 5 -12 2 9 2 23 0 30 -3 6 -5 -1 -5 -18z"/>
<path d="M1284 898 l-19 -23 23 19 c21 18 27 26 19 26 -2 0 -12 -10 -23 -22z"/>
<path d="M782 845 c0 -16 2 -22 5 -12 2 9 2 23 0 30 -3 6 -5 -1 -5 -18z"/>
<path d="M1103 695 c0 -27 2 -38 4 -22 2 15 2 37 0 50 -2 12 -4 0 -4 -28z"/>
<path d="M832 700 c0 -14 2 -19 5 -12 2 6 2 18 0 25 -3 6 -5 1 -5 -13z"/>
<path d="M840 661 c0 -6 4 -13 10 -16 6 -3 7 1 4 9 -7 18 -14 21 -14 7z"/>
<path d="M1069 552 c-3 -20 -2 -29 4 -23 5 5 7 19 5 32 -3 20 -5 19 -9 -9z"/>
<path d="M891 524 c0 -11 3 -14 6 -6 3 7 2 16 -1 19 -3 4 -6 -2 -5 -13z"/>
<path d="M1020 485 c-13 -14 -22 -27 -19 -29 2 -2 14 10 27 25 29 36 24 38 -8
4z"/>
<path d="M924 453 c11 -13 29 -22 40 -22 20 1 20 2 1 6 -11 3 -29 12 -40 22
-20 16 -20 16 -1 -6z"/>
</g>
</svg>
